<?xml version="1.0" encoding="UTF-8"?>
<svg width="341px" height="89px" viewBox="0 0 341 89" version="1.1" xmlns="http://www.w3.org/2000/svg" xmlns:xlink="http://www.w3.org/1999/xlink">
    <!-- Generator: Sketch 52.2 (67145) - http://www.bohemiancoding.com/sketch -->
    <title>astropay-logo-white</title>
    <desc>Created with Sketch.</desc>
    <g id="Page-1" stroke="none" stroke-width="1" fill="none" fill-rule="evenodd">
        <g id="astropay-logo-white">
            <path d="M22.5382131,3 L0,69 L13.2669537,69 L19.6350915,49.7331129 L37.9278794,49.7331129 L44.4833154,69 L58,69 L35.4305705,3 L22.5382131,3 Z M34.7438105,38.7902692 L22.8815931,38.7902692 L27.8137783,24.2621634 C28.1571582,23.2645253 28.4693219,22.2980633 28.7502691,21.3004251 C29.0624327,22.2980633 29.3745963,23.3268777 29.7491927,24.355692 L34.7438105,38.7902692 Z" id="Shape" fill="#FFFFFF" fill-rule="nonzero"></path>
            <path d="M80.980477,38.7287823 C74.8923922,36.2822878 74.2055313,35.1845018 74.2055313,33.396679 C74.2055313,31.1697417 76.0787882,29.7583026 79.0759992,29.7583026 C82.6664082,29.7583026 85.4450726,31.201107 86.7875733,32.0479705 L89.378912,33.6789668 L92.8132163,23.1402214 L91.2833898,22.1365314 C88.2861788,20.1605166 83.7903623,19 79.2321039,19 C69.0540749,19 61.6547102,25.4612546 61.6547102,34.400369 C61.6547102,42.5867159 68.8979702,46.9778598 74.9548341,49.1734317 C81.011698,51.4630996 81.4800122,53 81.4800122,54.9446494 C81.4800122,58.5830258 77.6710565,59.1162362 75.4231483,59.1162362 C71.9264021,59.1162362 68.1486674,57.6107011 65.994422,56.3560886 L63.4030833,54.8191882 L60,65.5774908 L61.6547102,66.5498155 C65.370003,68.7453875 70.3029128,70 75.2358226,70 C86.4753638,70 93.9996123,63.6642066 93.9996123,54.2546125 C94.0620542,44.7195572 86.5690267,40.8302583 80.980477,38.7287823 Z" id="Path" fill="#FFFFFF"></path>
            <path d="M114.476768,8 L101.826263,11.8591837 L101.826263,19.5142857 L95,19.5142857 L95,30.5540816 L101.826263,30.5540816 L101.826263,52.4438776 C101.826263,58.5489796 103.047475,62.9142857 105.552525,65.7928571 C107.994949,68.5132653 111.721212,70 115.979798,70 C119.831313,70 122.586869,69.2091837 123.90202,68.7663265 L125.624242,68.1653061 L124.966667,57.0938776 L122.054545,57.9795918 C121.177778,58.2326531 120.175758,58.422449 118.109091,58.422449 C116.574747,58.422449 114.508081,58.422449 114.508081,52.1908163 L114.508081,30.5540816 L126,30.5540816 L126,19.5142857 L114.508081,19.5142857 L114.508081,8 L114.476768,8 Z" id="Path" fill="#FFFFFF"></path>
            <path d="M158,19.4708098 L155.60739,19.1883239 C154.896074,19.094162 154.184758,19 153.247113,19 C149.108545,19 145.293303,20.6635279 142.415704,23.519774 L142.286374,19.9102323 L130,19.9102323 L130.161663,22.4839925 C130.420323,26.2504708 130.549654,30.5819209 130.549654,36.1374765 L130.549654,69 L143.806005,69 L143.806005,43.0112994 C143.806005,41.787194 143.903002,40.5630885 144.032333,39.6842436 C145.002309,34.5994978 148.300231,31.4293785 152.69746,31.4293785 C153.732102,31.4293785 154.411085,31.4293785 154.993072,31.5549278 L158,32.1826742 L158,19.4708098 Z" id="Path" fill="#FFFFFF"></path>
            <path d="M180.836016,19 C166.209651,19 156,29.608 156,44.8295385 C156,59.6430769 165.889599,70 180.067892,70 C192.069832,70 204.999923,61.9027692 204.999923,44.0763077 C205.031928,29.3255385 195.078319,19 180.836016,19 Z M191.717775,44.3587692 C191.717775,52.9267692 186.981009,59.1409231 180.483959,59.1409231 C174.018914,59.1409231 169.314153,52.9895385 169.314153,44.5470769 C169.314153,39.0861538 171.714541,29.8590769 180.67599,29.8590769 C189.413403,29.8590769 191.717775,39.3372308 191.717775,44.3587692 Z" id="Shape" fill="#FFFFFF" fill-rule="nonzero"></path>
            <path d="M246.78047,7.75093809 C242.518355,3.94840525 236.140969,2 227.774596,2 C222.18649,2 216.882526,2.40853659 212.020558,3.22560976 L210,3.57129456 L210,69 L222.849486,69 L222.849486,44.6763602 C224.175477,44.8020638 225.53304,44.8334897 226.859031,44.8334897 C235.541116,44.8334897 242.89721,42.1622889 247.538179,37.3227017 C251.168869,33.6144465 253,28.6177298 253,22.4582552 C253,16.5187617 250.790015,11.3020638 246.78047,7.75093809 Z M240.150514,22.8982176 C240.150514,32.2002814 231.941997,33.5830206 227.016887,33.5830206 C225.375184,33.5830206 223.98605,33.5201689 222.817915,33.3630394 L222.817915,13.4075985 C224.049192,13.250469 225.785609,13.1561914 227.932452,13.1561914 C233.520558,13.1561914 240.150514,14.8531895 240.150514,22.8982176 Z" id="Shape" fill="#FFFFFF" fill-rule="nonzero"></path>
            <path d="M291.88587,55.9938424 L291.88587,39.4439655 C291.88587,26.2543103 284.946429,19 272.372671,19 C266.54736,19 260.499224,20.570197 256.233696,23.2081281 L254.610248,24.2130542 L258.111801,34.419335 L260.785714,32.6293103 C263.49146,30.8392857 267.375,29.7401478 271.226708,29.7401478 C273.836957,29.7087438 275.778727,30.3054187 277.020186,31.5301724 C278.070652,32.5350985 278.707298,34.0738916 278.898292,36.020936 C268.711957,36.3035714 261.263199,38.7216749 256.743012,43.1496305 C253.591615,46.2272167 252,50.1841133 252,54.8633005 C252,62.3688424 257.53882,70 268.170807,70 C272.690994,70 276.988354,68.5868227 280.298913,66.0431034 L280.649068,68.96367 L293,68.96367 L292.58618,66.2001232 C292.076863,63.5621921 291.88587,60.1077586 291.88587,55.9938424 Z M270.14441,59.2598522 C268.20264,59.2598522 264.987578,58.5689655 264.987578,53.9839901 C264.987578,52.2253695 265.528727,50.8435961 266.674689,49.7444581 C268.20264,48.2684729 271.576863,46.5726601 279.121118,46.4156404 L279.121118,51.6915025 C279.121118,52.0683498 279.089286,52.7906404 278.86646,53.4815271 C277.943323,56.1508621 275.110248,59.2598522 270.14441,59.2598522 Z" id="Shape" fill="#FFFFFF" fill-rule="nonzero"></path>
            <path d="M327.207876,20 L317.812782,47.3695848 C317.559716,48.0546029 317.338283,48.7707581 317.11685,49.4557762 C316.863783,48.7707581 316.64235,48.1168773 316.389283,47.4941336 L306.14009,20 L292,20 L309.714655,63.7166065 L309.777921,63.8411552 C310.062621,64.4016245 310.157521,64.7441336 310.189154,64.8686823 C310.094254,65.1177798 309.904454,65.5537004 309.777921,65.833935 C308.259522,69.0722022 305.950291,72.0613718 303.672692,73.8673285 L303.609425,73.9296029 C301.015494,76.0780686 298.358296,77.0744585 297.34603,77.3858303 L295.068431,78.1019856 L298.389929,89 L300.509361,88.6263538 C301.806327,88.4083935 306.393157,87.3185921 311.644287,82.9905235 C317.939316,77.5103791 322.114913,68.7608303 327.587476,54.5622744 L341,20.0311372 L327.207876,20.0311372 L327.207876,20 Z" id="Path" fill="#FFFFFF"></path>
            <path d="M47.9663866,20.1871508 C56.2565237,11.9217877 70.2932331,6.97486034 85.5546218,6.97486034 C91.4896064,6.97486034 97.2989828,7.7122905 102.762937,9.18715084 L103.202565,9.31005587 L113,6.42178771 L108.603715,4.79329609 C100.250774,1.65921788 90.6417514,0 80.7501106,0 C66.4307828,0 53.0535161,3.37988827 43.0676692,9.52513966 L42,10.2011173 L46.1136665,22 L47.9663866,20.1871508 Z" id="Path" fill="#FF0000"></path>
        </g>
    </g>
</svg>